<mxfile host="Electron" modified="2024-10-30T13:50:43.140Z" agent="Mozilla/5.0 (Windows NT 10.0; Win64; x64) AppleWebKit/537.36 (KHTML, like Gecko) draw.io/24.6.4 Chrome/124.0.6367.207 Electron/30.0.6 Safari/537.36" etag="sUIgHGLqtEH_flRCf9LC" version="24.6.4" type="device">
  <diagram name="Page-1" id="3xUInb8MemLnlo8zbiy8">
    <mxGraphModel dx="1434" dy="1004" grid="1" gridSize="10" guides="1" tooltips="1" connect="1" arrows="1" fold="1" page="1" pageScale="1" pageWidth="850" pageHeight="1100" math="0" shadow="0">
      <root>
        <mxCell id="0" />
        <mxCell id="1" parent="0" />
        <mxCell id="P3siAt0aQjDUHrrcbTt0-22" value="" style="group" vertex="1" connectable="0" parent="1">
          <mxGeometry x="80" y="180" width="690" height="400" as="geometry" />
        </mxCell>
        <mxCell id="P3siAt0aQjDUHrrcbTt0-6" value="" style="group" vertex="1" connectable="0" parent="P3siAt0aQjDUHrrcbTt0-22">
          <mxGeometry width="690" height="400" as="geometry" />
        </mxCell>
        <mxCell id="P3siAt0aQjDUHrrcbTt0-3" value="" style="rounded=0;whiteSpace=wrap;html=1;" vertex="1" parent="P3siAt0aQjDUHrrcbTt0-6">
          <mxGeometry width="610" height="400" as="geometry" />
        </mxCell>
        <mxCell id="P3siAt0aQjDUHrrcbTt0-4" value="" style="rounded=0;whiteSpace=wrap;html=1;" vertex="1" parent="P3siAt0aQjDUHrrcbTt0-6">
          <mxGeometry width="610" height="60" as="geometry" />
        </mxCell>
        <mxCell id="P3siAt0aQjDUHrrcbTt0-8" value="&lt;font style=&quot;font-size: 19px;&quot;&gt;i&lt;/font&gt;" style="ellipse;whiteSpace=wrap;html=1;aspect=fixed;" vertex="1" parent="P3siAt0aQjDUHrrcbTt0-6">
          <mxGeometry x="570" y="70" width="28.695652173913043" height="28.695652173913043" as="geometry" />
        </mxCell>
        <mxCell id="P3siAt0aQjDUHrrcbTt0-21" value="" style="rounded=1;whiteSpace=wrap;html=1;" vertex="1" parent="P3siAt0aQjDUHrrcbTt0-6">
          <mxGeometry x="550.1600000000001" y="110" width="48.53" height="30" as="geometry" />
        </mxCell>
        <mxCell id="P3siAt0aQjDUHrrcbTt0-9" value="&lt;font style=&quot;font-size: 33px;&quot;&gt;+&lt;/font&gt;" style="ellipse;whiteSpace=wrap;html=1;aspect=fixed;" vertex="1" parent="P3siAt0aQjDUHrrcbTt0-6">
          <mxGeometry x="551.47" y="330" width="47.22222222222222" height="47.22222222222222" as="geometry" />
        </mxCell>
        <mxCell id="P3siAt0aQjDUHrrcbTt0-10" value="" style="group" vertex="1" connectable="0" parent="P3siAt0aQjDUHrrcbTt0-22">
          <mxGeometry x="20" y="80" width="520" height="300" as="geometry" />
        </mxCell>
        <mxCell id="P3siAt0aQjDUHrrcbTt0-5" value="" style="rounded=0;whiteSpace=wrap;html=1;" vertex="1" parent="P3siAt0aQjDUHrrcbTt0-10">
          <mxGeometry width="520" height="300" as="geometry" />
        </mxCell>
      </root>
    </mxGraphModel>
  </diagram>
</mxfile>
